%TF.GenerationSoftware,KiCad,Pcbnew,(6.0.7)*%
%TF.CreationDate,2024-01-15T20:32:37-05:00*%
%TF.ProjectId,pcb_chip,7063625f-6368-4697-902e-6b696361645f,rev?*%
%TF.SameCoordinates,Original*%
%TF.FileFunction,Drillmap*%
%TF.FilePolarity,Positive*%
%FSLAX45Y45*%
G04 Gerber Fmt 4.5, Leading zero omitted, Abs format (unit mm)*
G04 Created by KiCad (PCBNEW (6.0.7)) date 2024-01-15 20:32:37*
%MOMM*%
%LPD*%
G01*
G04 APERTURE LIST*
%ADD10C,0.100000*%
%ADD11C,0.200000*%
G04 APERTURE END LIST*
D10*
X14325600Y-8255000D02*
X14325600Y-10541000D01*
X14046200Y-10820400D01*
X11607800Y-10820400D01*
X11328400Y-10541000D01*
X11328400Y-8255000D01*
X11607800Y-7975600D01*
X14046200Y-7975600D01*
X14325600Y-8255000D01*
D11*
X11581019Y-11135876D02*
X11581019Y-10935876D01*
X11628638Y-10935876D01*
X11657209Y-10945400D01*
X11676257Y-10964448D01*
X11685781Y-10983495D01*
X11695305Y-11021590D01*
X11695305Y-11050162D01*
X11685781Y-11088257D01*
X11676257Y-11107305D01*
X11657209Y-11126352D01*
X11628638Y-11135876D01*
X11581019Y-11135876D01*
X11781019Y-11135876D02*
X11781019Y-11002543D01*
X11781019Y-11040638D02*
X11790543Y-11021590D01*
X11800067Y-11012067D01*
X11819114Y-11002543D01*
X11838162Y-11002543D01*
X11904828Y-11135876D02*
X11904828Y-11002543D01*
X11904828Y-10935876D02*
X11895305Y-10945400D01*
X11904828Y-10954924D01*
X11914352Y-10945400D01*
X11904828Y-10935876D01*
X11904828Y-10954924D01*
X12028638Y-11135876D02*
X12009590Y-11126352D01*
X12000067Y-11107305D01*
X12000067Y-10935876D01*
X12133400Y-11135876D02*
X12114352Y-11126352D01*
X12104828Y-11107305D01*
X12104828Y-10935876D01*
X12361971Y-11135876D02*
X12361971Y-10935876D01*
X12428638Y-11078733D01*
X12495305Y-10935876D01*
X12495305Y-11135876D01*
X12676257Y-11135876D02*
X12676257Y-11031114D01*
X12666733Y-11012067D01*
X12647686Y-11002543D01*
X12609590Y-11002543D01*
X12590543Y-11012067D01*
X12676257Y-11126352D02*
X12657209Y-11135876D01*
X12609590Y-11135876D01*
X12590543Y-11126352D01*
X12581019Y-11107305D01*
X12581019Y-11088257D01*
X12590543Y-11069210D01*
X12609590Y-11059686D01*
X12657209Y-11059686D01*
X12676257Y-11050162D01*
X12771495Y-11002543D02*
X12771495Y-11202543D01*
X12771495Y-11012067D02*
X12790543Y-11002543D01*
X12828638Y-11002543D01*
X12847686Y-11012067D01*
X12857209Y-11021590D01*
X12866733Y-11040638D01*
X12866733Y-11097781D01*
X12857209Y-11116829D01*
X12847686Y-11126352D01*
X12828638Y-11135876D01*
X12790543Y-11135876D01*
X12771495Y-11126352D01*
X12952448Y-11116829D02*
X12961971Y-11126352D01*
X12952448Y-11135876D01*
X12942924Y-11126352D01*
X12952448Y-11116829D01*
X12952448Y-11135876D01*
X12952448Y-11012067D02*
X12961971Y-11021590D01*
X12952448Y-11031114D01*
X12942924Y-11021590D01*
X12952448Y-11012067D01*
X12952448Y-11031114D01*
M02*
