G04 #@! TF.GenerationSoftware,KiCad,Pcbnew,(6.0.7)*
G04 #@! TF.CreationDate,2024-01-15T20:32:35-05:00*
G04 #@! TF.ProjectId,pcb_chip,7063625f-6368-4697-902e-6b696361645f,rev?*
G04 #@! TF.SameCoordinates,Original*
G04 #@! TF.FileFunction,Legend,Top*
G04 #@! TF.FilePolarity,Positive*
%FSLAX46Y46*%
G04 Gerber Fmt 4.6, Leading zero omitted, Abs format (unit mm)*
G04 Created by KiCad (PCBNEW (6.0.7)) date 2024-01-15 20:32:35*
%MOMM*%
%LPD*%
G01*
G04 APERTURE LIST*
G04 Aperture macros list*
%AMRoundRect*
0 Rectangle with rounded corners*
0 $1 Rounding radius*
0 $2 $3 $4 $5 $6 $7 $8 $9 X,Y pos of 4 corners*
0 Add a 4 corners polygon primitive as box body*
4,1,4,$2,$3,$4,$5,$6,$7,$8,$9,$2,$3,0*
0 Add four circle primitives for the rounded corners*
1,1,$1+$1,$2,$3*
1,1,$1+$1,$4,$5*
1,1,$1+$1,$6,$7*
1,1,$1+$1,$8,$9*
0 Add four rect primitives between the rounded corners*
20,1,$1+$1,$2,$3,$4,$5,0*
20,1,$1+$1,$4,$5,$6,$7,0*
20,1,$1+$1,$6,$7,$8,$9,0*
20,1,$1+$1,$8,$9,$2,$3,0*%
G04 Aperture macros list end*
%ADD10C,0.150000*%
%ADD11C,0.254000*%
%ADD12C,0.120000*%
%ADD13C,0.200000*%
%ADD14RoundRect,0.250000X0.450000X-0.262500X0.450000X0.262500X-0.450000X0.262500X-0.450000X-0.262500X0*%
%ADD15R,1.600000X1.600000*%
%ADD16O,1.600000X1.600000*%
%ADD17RoundRect,0.250000X0.312500X0.625000X-0.312500X0.625000X-0.312500X-0.625000X0.312500X-0.625000X0*%
%ADD18RoundRect,0.150000X-0.150000X0.587500X-0.150000X-0.587500X0.150000X-0.587500X0.150000X0.587500X0*%
%ADD19RoundRect,0.250000X-0.625000X0.312500X-0.625000X-0.312500X0.625000X-0.312500X0.625000X0.312500X0*%
%ADD20RoundRect,0.250000X0.625000X-0.312500X0.625000X0.312500X-0.625000X0.312500X-0.625000X-0.312500X0*%
%ADD21RoundRect,0.250000X-1.050000X-0.550000X1.050000X-0.550000X1.050000X0.550000X-1.050000X0.550000X0*%
%ADD22R,1.500000X1.500000*%
%ADD23C,1.500000*%
%ADD24C,4.260000*%
%ADD25R,1.700000X1.700000*%
%ADD26O,1.700000X1.700000*%
%ADD27RoundRect,0.150000X0.587500X0.150000X-0.587500X0.150000X-0.587500X-0.150000X0.587500X-0.150000X0*%
%ADD28RoundRect,0.250000X-0.550000X1.050000X-0.550000X-1.050000X0.550000X-1.050000X0.550000X1.050000X0*%
%ADD29R,1.500000X2.000000*%
%ADD30R,3.800000X2.000000*%
G04 APERTURE END LIST*
D10*
X116251980Y-101919066D02*
X115775790Y-102252400D01*
X116251980Y-102490495D02*
X115251980Y-102490495D01*
X115251980Y-102109542D01*
X115299600Y-102014304D01*
X115347219Y-101966685D01*
X115442457Y-101919066D01*
X115585314Y-101919066D01*
X115680552Y-101966685D01*
X115728171Y-102014304D01*
X115775790Y-102109542D01*
X115775790Y-102490495D01*
X115347219Y-101538114D02*
X115299600Y-101490495D01*
X115251980Y-101395257D01*
X115251980Y-101157161D01*
X115299600Y-101061923D01*
X115347219Y-101014304D01*
X115442457Y-100966685D01*
X115537695Y-100966685D01*
X115680552Y-101014304D01*
X116251980Y-101585733D01*
X116251980Y-100966685D01*
X136601295Y-86584380D02*
X136601295Y-87393904D01*
X136648914Y-87489142D01*
X136696533Y-87536761D01*
X136791771Y-87584380D01*
X136982247Y-87584380D01*
X137077485Y-87536761D01*
X137125104Y-87489142D01*
X137172723Y-87393904D01*
X137172723Y-86584380D01*
X137601295Y-86679619D02*
X137648914Y-86632000D01*
X137744152Y-86584380D01*
X137982247Y-86584380D01*
X138077485Y-86632000D01*
X138125104Y-86679619D01*
X138172723Y-86774857D01*
X138172723Y-86870095D01*
X138125104Y-87012952D01*
X137553676Y-87584380D01*
X138172723Y-87584380D01*
X137755333Y-93771980D02*
X137422000Y-93295790D01*
X137183904Y-93771980D02*
X137183904Y-92771980D01*
X137564857Y-92771980D01*
X137660095Y-92819600D01*
X137707714Y-92867219D01*
X137755333Y-92962457D01*
X137755333Y-93105314D01*
X137707714Y-93200552D01*
X137660095Y-93248171D01*
X137564857Y-93295790D01*
X137183904Y-93295790D01*
X138612476Y-92771980D02*
X138422000Y-92771980D01*
X138326761Y-92819600D01*
X138279142Y-92867219D01*
X138183904Y-93010076D01*
X138136285Y-93200552D01*
X138136285Y-93581504D01*
X138183904Y-93676742D01*
X138231523Y-93724361D01*
X138326761Y-93771980D01*
X138517238Y-93771980D01*
X138612476Y-93724361D01*
X138660095Y-93676742D01*
X138707714Y-93581504D01*
X138707714Y-93343409D01*
X138660095Y-93248171D01*
X138612476Y-93200552D01*
X138517238Y-93152933D01*
X138326761Y-93152933D01*
X138231523Y-93200552D01*
X138183904Y-93248171D01*
X138136285Y-93343409D01*
X137928361Y-107227619D02*
X137833123Y-107180000D01*
X137737885Y-107084761D01*
X137595028Y-106941904D01*
X137499790Y-106894285D01*
X137404552Y-106894285D01*
X137452171Y-107132380D02*
X137356933Y-107084761D01*
X137261695Y-106989523D01*
X137214076Y-106799047D01*
X137214076Y-106465714D01*
X137261695Y-106275238D01*
X137356933Y-106180000D01*
X137452171Y-106132380D01*
X137642647Y-106132380D01*
X137737885Y-106180000D01*
X137833123Y-106275238D01*
X137880742Y-106465714D01*
X137880742Y-106799047D01*
X137833123Y-106989523D01*
X137737885Y-107084761D01*
X137642647Y-107132380D01*
X137452171Y-107132380D01*
X138833123Y-107132380D02*
X138261695Y-107132380D01*
X138547409Y-107132380D02*
X138547409Y-106132380D01*
X138452171Y-106275238D01*
X138356933Y-106370476D01*
X138261695Y-106418095D01*
X138628380Y-101258666D02*
X138152190Y-101592000D01*
X138628380Y-101830095D02*
X137628380Y-101830095D01*
X137628380Y-101449142D01*
X137676000Y-101353904D01*
X137723619Y-101306285D01*
X137818857Y-101258666D01*
X137961714Y-101258666D01*
X138056952Y-101306285D01*
X138104571Y-101353904D01*
X138152190Y-101449142D01*
X138152190Y-101830095D01*
X137628380Y-100925333D02*
X137628380Y-100306285D01*
X138009333Y-100639619D01*
X138009333Y-100496761D01*
X138056952Y-100401523D01*
X138104571Y-100353904D01*
X138199809Y-100306285D01*
X138437904Y-100306285D01*
X138533142Y-100353904D01*
X138580761Y-100401523D01*
X138628380Y-100496761D01*
X138628380Y-100782476D01*
X138580761Y-100877714D01*
X138533142Y-100925333D01*
X120086380Y-99988666D02*
X119610190Y-100322000D01*
X120086380Y-100560095D02*
X119086380Y-100560095D01*
X119086380Y-100179142D01*
X119134000Y-100083904D01*
X119181619Y-100036285D01*
X119276857Y-99988666D01*
X119419714Y-99988666D01*
X119514952Y-100036285D01*
X119562571Y-100083904D01*
X119610190Y-100179142D01*
X119610190Y-100560095D01*
X119419714Y-99131523D02*
X120086380Y-99131523D01*
X119038761Y-99369619D02*
X119753047Y-99607714D01*
X119753047Y-98988666D01*
X135875733Y-101398342D02*
X135828114Y-101445961D01*
X135685257Y-101493580D01*
X135590019Y-101493580D01*
X135447161Y-101445961D01*
X135351923Y-101350723D01*
X135304304Y-101255485D01*
X135256685Y-101065009D01*
X135256685Y-100922152D01*
X135304304Y-100731676D01*
X135351923Y-100636438D01*
X135447161Y-100541200D01*
X135590019Y-100493580D01*
X135685257Y-100493580D01*
X135828114Y-100541200D01*
X135875733Y-100588819D01*
X136256685Y-100588819D02*
X136304304Y-100541200D01*
X136399542Y-100493580D01*
X136637638Y-100493580D01*
X136732876Y-100541200D01*
X136780495Y-100588819D01*
X136828114Y-100684057D01*
X136828114Y-100779295D01*
X136780495Y-100922152D01*
X136209066Y-101493580D01*
X136828114Y-101493580D01*
X139482533Y-104744780D02*
X139149200Y-104268590D01*
X138911104Y-104744780D02*
X138911104Y-103744780D01*
X139292057Y-103744780D01*
X139387295Y-103792400D01*
X139434914Y-103840019D01*
X139482533Y-103935257D01*
X139482533Y-104078114D01*
X139434914Y-104173352D01*
X139387295Y-104220971D01*
X139292057Y-104268590D01*
X138911104Y-104268590D01*
X140387295Y-103744780D02*
X139911104Y-103744780D01*
X139863485Y-104220971D01*
X139911104Y-104173352D01*
X140006342Y-104125733D01*
X140244438Y-104125733D01*
X140339676Y-104173352D01*
X140387295Y-104220971D01*
X140434914Y-104316209D01*
X140434914Y-104554304D01*
X140387295Y-104649542D01*
X140339676Y-104697161D01*
X140244438Y-104744780D01*
X140006342Y-104744780D01*
X139911104Y-104697161D01*
X139863485Y-104649542D01*
X120035580Y-102579466D02*
X119559390Y-102912800D01*
X120035580Y-103150895D02*
X119035580Y-103150895D01*
X119035580Y-102769942D01*
X119083200Y-102674704D01*
X119130819Y-102627085D01*
X119226057Y-102579466D01*
X119368914Y-102579466D01*
X119464152Y-102627085D01*
X119511771Y-102674704D01*
X119559390Y-102769942D01*
X119559390Y-103150895D01*
X120035580Y-101627085D02*
X120035580Y-102198514D01*
X120035580Y-101912800D02*
X119035580Y-101912800D01*
X119178438Y-102008038D01*
X119273676Y-102103276D01*
X119321295Y-102198514D01*
D11*
X124085047Y-88204523D02*
X123661714Y-87599761D01*
X123359333Y-88204523D02*
X123359333Y-86934523D01*
X123843142Y-86934523D01*
X123964095Y-86995000D01*
X124024571Y-87055476D01*
X124085047Y-87176428D01*
X124085047Y-87357857D01*
X124024571Y-87478809D01*
X123964095Y-87539285D01*
X123843142Y-87599761D01*
X123359333Y-87599761D01*
X124447904Y-86934523D02*
X124871238Y-88204523D01*
X125294571Y-86934523D01*
X126383142Y-88204523D02*
X125657428Y-88204523D01*
X126020285Y-88204523D02*
X126020285Y-86934523D01*
X125899333Y-87115952D01*
X125778380Y-87236904D01*
X125657428Y-87297380D01*
D10*
X113466619Y-95456476D02*
X114466619Y-95456476D01*
X113752333Y-95789809D01*
X114466619Y-96123142D01*
X113466619Y-96123142D01*
X114371380Y-96551714D02*
X114419000Y-96599333D01*
X114466619Y-96694571D01*
X114466619Y-96932666D01*
X114419000Y-97027904D01*
X114371380Y-97075523D01*
X114276142Y-97123142D01*
X114180904Y-97123142D01*
X114038047Y-97075523D01*
X113466619Y-96504095D01*
X113466619Y-97123142D01*
X143073380Y-100504523D02*
X142073380Y-100504523D01*
X142787666Y-100171190D01*
X142073380Y-99837857D01*
X143073380Y-99837857D01*
X143073380Y-98837857D02*
X143073380Y-99409285D01*
X143073380Y-99123571D02*
X142073380Y-99123571D01*
X142216238Y-99218809D01*
X142311476Y-99314047D01*
X142359095Y-99409285D01*
X117993057Y-106370380D02*
X117993057Y-105370380D01*
X117993057Y-105751333D02*
X118088295Y-105703714D01*
X118278771Y-105703714D01*
X118374009Y-105751333D01*
X118421628Y-105798952D01*
X118469247Y-105894190D01*
X118469247Y-106179904D01*
X118421628Y-106275142D01*
X118374009Y-106322761D01*
X118278771Y-106370380D01*
X118088295Y-106370380D01*
X117993057Y-106322761D01*
X119326390Y-106370380D02*
X119326390Y-105846571D01*
X119278771Y-105751333D01*
X119183533Y-105703714D01*
X118993057Y-105703714D01*
X118897819Y-105751333D01*
X119326390Y-106322761D02*
X119231152Y-106370380D01*
X118993057Y-106370380D01*
X118897819Y-106322761D01*
X118850200Y-106227523D01*
X118850200Y-106132285D01*
X118897819Y-106037047D01*
X118993057Y-105989428D01*
X119231152Y-105989428D01*
X119326390Y-105941809D01*
X119659723Y-105703714D02*
X120040676Y-105703714D01*
X119802580Y-105370380D02*
X119802580Y-106227523D01*
X119850200Y-106322761D01*
X119945438Y-106370380D01*
X120040676Y-106370380D01*
X120231152Y-105703714D02*
X120612104Y-105703714D01*
X120374009Y-105370380D02*
X120374009Y-106227523D01*
X120421628Y-106322761D01*
X120516866Y-106370380D01*
X120612104Y-106370380D01*
X121326390Y-106322761D02*
X121231152Y-106370380D01*
X121040676Y-106370380D01*
X120945438Y-106322761D01*
X120897819Y-106227523D01*
X120897819Y-105846571D01*
X120945438Y-105751333D01*
X121040676Y-105703714D01*
X121231152Y-105703714D01*
X121326390Y-105751333D01*
X121374009Y-105846571D01*
X121374009Y-105941809D01*
X120897819Y-106037047D01*
X121802580Y-106370380D02*
X121802580Y-105703714D01*
X121802580Y-105894190D02*
X121850200Y-105798952D01*
X121897819Y-105751333D01*
X121993057Y-105703714D01*
X122088295Y-105703714D01*
X122326390Y-105703714D02*
X122564485Y-106370380D01*
X122802580Y-105703714D02*
X122564485Y-106370380D01*
X122469247Y-106608476D01*
X122421628Y-106656095D01*
X122326390Y-106703714D01*
X116219219Y-98190038D02*
X116171600Y-98285276D01*
X116076361Y-98380514D01*
X115933504Y-98523371D01*
X115885885Y-98618609D01*
X115885885Y-98713847D01*
X116123980Y-98666228D02*
X116076361Y-98761466D01*
X115981123Y-98856704D01*
X115790647Y-98904323D01*
X115457314Y-98904323D01*
X115266838Y-98856704D01*
X115171600Y-98761466D01*
X115123980Y-98666228D01*
X115123980Y-98475752D01*
X115171600Y-98380514D01*
X115266838Y-98285276D01*
X115457314Y-98237657D01*
X115790647Y-98237657D01*
X115981123Y-98285276D01*
X116076361Y-98380514D01*
X116123980Y-98475752D01*
X116123980Y-98666228D01*
X115219219Y-97856704D02*
X115171600Y-97809085D01*
X115123980Y-97713847D01*
X115123980Y-97475752D01*
X115171600Y-97380514D01*
X115219219Y-97332895D01*
X115314457Y-97285276D01*
X115409695Y-97285276D01*
X115552552Y-97332895D01*
X116123980Y-97904323D01*
X116123980Y-97285276D01*
X134097733Y-107291142D02*
X134050114Y-107338761D01*
X133907257Y-107386380D01*
X133812019Y-107386380D01*
X133669161Y-107338761D01*
X133573923Y-107243523D01*
X133526304Y-107148285D01*
X133478685Y-106957809D01*
X133478685Y-106814952D01*
X133526304Y-106624476D01*
X133573923Y-106529238D01*
X133669161Y-106434000D01*
X133812019Y-106386380D01*
X133907257Y-106386380D01*
X134050114Y-106434000D01*
X134097733Y-106481619D01*
X135050114Y-107386380D02*
X134478685Y-107386380D01*
X134764400Y-107386380D02*
X134764400Y-106386380D01*
X134669161Y-106529238D01*
X134573923Y-106624476D01*
X134478685Y-106672095D01*
X129957580Y-100787104D02*
X130767104Y-100787104D01*
X130862342Y-100739485D01*
X130909961Y-100691866D01*
X130957580Y-100596628D01*
X130957580Y-100406152D01*
X130909961Y-100310914D01*
X130862342Y-100263295D01*
X130767104Y-100215676D01*
X129957580Y-100215676D01*
X130957580Y-99215676D02*
X130957580Y-99787104D01*
X130957580Y-99501390D02*
X129957580Y-99501390D01*
X130100438Y-99596628D01*
X130195676Y-99691866D01*
X130243295Y-99787104D01*
D12*
X116714600Y-101979464D02*
X116714600Y-101525336D01*
X118184600Y-101979464D02*
X118184600Y-101525336D01*
X134713200Y-92262000D02*
X136363200Y-92262000D01*
X138363200Y-92262000D02*
X140013200Y-92262000D01*
X134713200Y-81982000D02*
X134713200Y-92262000D01*
X140013200Y-92262000D02*
X140013200Y-81982000D01*
X140013200Y-81982000D02*
X134713200Y-81982000D01*
X138363200Y-92262000D02*
G75*
G03*
X136363200Y-92262000I-1000000J0D01*
G01*
X135397864Y-94636000D02*
X133943736Y-94636000D01*
X135397864Y-92816000D02*
X133943736Y-92816000D01*
X135447600Y-104038400D02*
X135447600Y-103388400D01*
X138567600Y-104038400D02*
X138567600Y-102363400D01*
X135447600Y-104038400D02*
X135447600Y-104688400D01*
X138567600Y-104038400D02*
X138567600Y-104688400D01*
X138832000Y-97164536D02*
X138832000Y-98618664D01*
X137012000Y-97164536D02*
X137012000Y-98618664D01*
X120502000Y-98390064D02*
X120502000Y-96935936D01*
X122322000Y-98390064D02*
X122322000Y-96935936D01*
X131090000Y-96721437D02*
X131090000Y-96857000D01*
X131090000Y-99112563D02*
X132154437Y-100177000D01*
X131090000Y-96721437D02*
X132154437Y-95657000D01*
X135610000Y-95657000D02*
X135610000Y-96857000D01*
X132154437Y-100177000D02*
X135610000Y-100177000D01*
X130600000Y-96107000D02*
X130600000Y-96607000D01*
X132154437Y-95657000D02*
X135610000Y-95657000D01*
X130350000Y-96357000D02*
X130850000Y-96357000D01*
X135610000Y-100177000D02*
X135610000Y-98977000D01*
X131090000Y-99112563D02*
X131090000Y-98977000D01*
X139399600Y-100568136D02*
X139399600Y-102022264D01*
X141219600Y-100568136D02*
X141219600Y-102022264D01*
X120502000Y-103089064D02*
X120502000Y-101634936D01*
X122322000Y-103089064D02*
X122322000Y-101634936D01*
D13*
X119991000Y-83255000D02*
X119991000Y-86255000D01*
X127341000Y-80455000D02*
X127341000Y-80455000D01*
X127341000Y-80355000D02*
X127341000Y-80355000D01*
X129691000Y-94255000D02*
X119991000Y-94255000D01*
X129691000Y-83255000D02*
X119991000Y-83255000D01*
X129691000Y-91255000D02*
X129691000Y-94255000D01*
X119991000Y-94255000D02*
X119991000Y-91255000D01*
X129691000Y-86255000D02*
X129691000Y-83255000D01*
X127341000Y-80355000D02*
X127341000Y-80355000D01*
X127341000Y-80455000D02*
G75*
G03*
X127341000Y-80355000I0J50000D01*
G01*
X127341000Y-80355000D02*
G75*
G03*
X127341000Y-80455000I0J-50000D01*
G01*
X127341000Y-80355000D02*
G75*
G03*
X127341000Y-80455000I0J-50000D01*
G01*
D12*
X116747600Y-92207000D02*
X114087600Y-92207000D01*
X116747600Y-93477000D02*
X116747600Y-94807000D01*
X116747600Y-94807000D02*
X115417600Y-94807000D01*
X114087600Y-92207000D02*
X114087600Y-89607000D01*
X116747600Y-92207000D02*
X116747600Y-89607000D01*
X116747600Y-89607000D02*
X114087600Y-89607000D01*
X142300000Y-95636000D02*
X139640000Y-95636000D01*
X142300000Y-95636000D02*
X142300000Y-93036000D01*
X142300000Y-93036000D02*
X139640000Y-93036000D01*
X142300000Y-98236000D02*
X140970000Y-98236000D01*
X142300000Y-96906000D02*
X142300000Y-98236000D01*
X139640000Y-95636000D02*
X139640000Y-93036000D01*
X126441200Y-107502000D02*
X126441200Y-104842000D01*
X126441200Y-107502000D02*
X129041200Y-107502000D01*
X129041200Y-107502000D02*
X129041200Y-104842000D01*
X123841200Y-107502000D02*
X123841200Y-106172000D01*
X125171200Y-107502000D02*
X123841200Y-107502000D01*
X126441200Y-104842000D02*
X129041200Y-104842000D01*
X118211600Y-98638800D02*
X119886600Y-98638800D01*
X118211600Y-95518800D02*
X117561600Y-95518800D01*
X118211600Y-98638800D02*
X117561600Y-98638800D01*
X118211600Y-95518800D02*
X118861600Y-95518800D01*
X131189237Y-101626000D02*
X131324800Y-101626000D01*
X134644800Y-106146000D02*
X133444800Y-106146000D01*
X130124800Y-102690437D02*
X130124800Y-106146000D01*
X134644800Y-102690437D02*
X134644800Y-106146000D01*
X133580363Y-101626000D02*
X134644800Y-102690437D01*
X130124800Y-106146000D02*
X131324800Y-106146000D01*
X134194800Y-101136000D02*
X133694800Y-101136000D01*
X133580363Y-101626000D02*
X133444800Y-101626000D01*
X131189237Y-101626000D02*
X130124800Y-102690437D01*
X133944800Y-100886000D02*
X133944800Y-101386000D01*
X122828000Y-97912000D02*
X124088000Y-97912000D01*
X129648000Y-101672000D02*
X129648000Y-97912000D01*
X129648000Y-97912000D02*
X128388000Y-97912000D01*
X122828000Y-103922000D02*
X122828000Y-97912000D01*
%LPC*%
D14*
X117449600Y-102664900D03*
X117449600Y-100839900D03*
D15*
X141173200Y-90932000D03*
D16*
X141173200Y-88392000D03*
X141173200Y-85852000D03*
X141173200Y-83312000D03*
X133553200Y-83312000D03*
X133553200Y-85852000D03*
X133553200Y-88392000D03*
X133553200Y-90932000D03*
D17*
X136133300Y-93726000D03*
X133208300Y-93726000D03*
D18*
X137957600Y-103100900D03*
X136057600Y-103100900D03*
X137007600Y-104975900D03*
D19*
X137922000Y-96429100D03*
X137922000Y-99354100D03*
D20*
X121412000Y-99125500D03*
X121412000Y-96200500D03*
D21*
X131550000Y-97917000D03*
X135150000Y-97917000D03*
D19*
X140309600Y-99832700D03*
X140309600Y-102757700D03*
D20*
X121412000Y-103824500D03*
X121412000Y-100899500D03*
D22*
X127341000Y-81755000D03*
D23*
X124841000Y-81755000D03*
X122341000Y-81755000D03*
D24*
X129241000Y-88755000D03*
X120441000Y-88755000D03*
D25*
X115417600Y-93477000D03*
D26*
X115417600Y-90937000D03*
D25*
X140970000Y-96906000D03*
D26*
X140970000Y-94366000D03*
D25*
X125171200Y-106172000D03*
D26*
X127711200Y-106172000D03*
D27*
X119149100Y-98028800D03*
X119149100Y-96128800D03*
X117274100Y-97078800D03*
D28*
X132384800Y-102086000D03*
X132384800Y-105686000D03*
D29*
X123938000Y-102972000D03*
X126238000Y-102972000D03*
D30*
X126238000Y-96672000D03*
D29*
X128538000Y-102972000D03*
M02*
