G04 #@! TF.GenerationSoftware,KiCad,Pcbnew,(6.0.7)*
G04 #@! TF.CreationDate,2024-01-15T20:32:35-05:00*
G04 #@! TF.ProjectId,pcb_chip,7063625f-6368-4697-902e-6b696361645f,rev?*
G04 #@! TF.SameCoordinates,Original*
G04 #@! TF.FileFunction,Copper,L2,Bot*
G04 #@! TF.FilePolarity,Positive*
%FSLAX46Y46*%
G04 Gerber Fmt 4.6, Leading zero omitted, Abs format (unit mm)*
G04 Created by KiCad (PCBNEW (6.0.7)) date 2024-01-15 20:32:35*
%MOMM*%
%LPD*%
G01*
G04 APERTURE LIST*
G04 #@! TA.AperFunction,ComponentPad*
%ADD10R,1.600000X1.600000*%
G04 #@! TD*
G04 #@! TA.AperFunction,ComponentPad*
%ADD11O,1.600000X1.600000*%
G04 #@! TD*
G04 #@! TA.AperFunction,ComponentPad*
%ADD12R,1.500000X1.500000*%
G04 #@! TD*
G04 #@! TA.AperFunction,ComponentPad*
%ADD13C,1.500000*%
G04 #@! TD*
G04 #@! TA.AperFunction,ComponentPad*
%ADD14C,4.260000*%
G04 #@! TD*
G04 #@! TA.AperFunction,ComponentPad*
%ADD15R,1.700000X1.700000*%
G04 #@! TD*
G04 #@! TA.AperFunction,ComponentPad*
%ADD16O,1.700000X1.700000*%
G04 #@! TD*
G04 #@! TA.AperFunction,ViaPad*
%ADD17C,1.600000*%
G04 #@! TD*
G04 APERTURE END LIST*
D10*
X141173200Y-90932000D03*
D11*
X141173200Y-88392000D03*
X141173200Y-85852000D03*
X141173200Y-83312000D03*
X133553200Y-83312000D03*
X133553200Y-85852000D03*
X133553200Y-88392000D03*
X133553200Y-90932000D03*
D12*
X127341000Y-81755000D03*
D13*
X124841000Y-81755000D03*
X122341000Y-81755000D03*
D14*
X129241000Y-88755000D03*
X120441000Y-88755000D03*
D15*
X115417600Y-93477000D03*
D16*
X115417600Y-90937000D03*
D15*
X140970000Y-96906000D03*
D16*
X140970000Y-94366000D03*
D15*
X125171200Y-106172000D03*
D16*
X127711200Y-106172000D03*
D17*
X115163600Y-99872800D03*
G04 #@! TA.AperFunction,Conductor*
G36*
X122152204Y-80284502D02*
G01*
X122198697Y-80338158D01*
X122208801Y-80408432D01*
X122179307Y-80473012D01*
X122116695Y-80512207D01*
X121908924Y-80567880D01*
X121815562Y-80611415D01*
X121714334Y-80658618D01*
X121714329Y-80658621D01*
X121709347Y-80660944D01*
X121704840Y-80664100D01*
X121704838Y-80664101D01*
X121533473Y-80784092D01*
X121533470Y-80784094D01*
X121528962Y-80787251D01*
X121373251Y-80942962D01*
X121370094Y-80947470D01*
X121370092Y-80947473D01*
X121291938Y-81059089D01*
X121246944Y-81123347D01*
X121244621Y-81128329D01*
X121244618Y-81128334D01*
X121205195Y-81212878D01*
X121153880Y-81322924D01*
X121096885Y-81535629D01*
X121077693Y-81755000D01*
X121096885Y-81974371D01*
X121153880Y-82187076D01*
X121173277Y-82228673D01*
X121244618Y-82381666D01*
X121244621Y-82381671D01*
X121246944Y-82386653D01*
X121250100Y-82391160D01*
X121250101Y-82391162D01*
X121367873Y-82559357D01*
X121373251Y-82567038D01*
X121528962Y-82722749D01*
X121709346Y-82849056D01*
X121908924Y-82942120D01*
X122121629Y-82999115D01*
X122341000Y-83018307D01*
X122560371Y-82999115D01*
X122773076Y-82942120D01*
X122972654Y-82849056D01*
X123153038Y-82722749D01*
X123308749Y-82567038D01*
X123314128Y-82559357D01*
X123431899Y-82391162D01*
X123431900Y-82391160D01*
X123435056Y-82386653D01*
X123437379Y-82381671D01*
X123437382Y-82381666D01*
X123476805Y-82297122D01*
X123523722Y-82243837D01*
X123592000Y-82224376D01*
X123659960Y-82244918D01*
X123705195Y-82297122D01*
X123744618Y-82381666D01*
X123744621Y-82381671D01*
X123746944Y-82386653D01*
X123750100Y-82391160D01*
X123750101Y-82391162D01*
X123867873Y-82559357D01*
X123873251Y-82567038D01*
X124028962Y-82722749D01*
X124209346Y-82849056D01*
X124408924Y-82942120D01*
X124621629Y-82999115D01*
X124841000Y-83018307D01*
X125060371Y-82999115D01*
X125273076Y-82942120D01*
X125472654Y-82849056D01*
X125653038Y-82722749D01*
X125808749Y-82567038D01*
X125814128Y-82559357D01*
X125855206Y-82500691D01*
X125910663Y-82456363D01*
X125981283Y-82449054D01*
X126044643Y-82481085D01*
X126080628Y-82542286D01*
X126083682Y-82559357D01*
X126088895Y-82607352D01*
X126092521Y-82622604D01*
X126137676Y-82743054D01*
X126146214Y-82758649D01*
X126222715Y-82860724D01*
X126235276Y-82873285D01*
X126337351Y-82949786D01*
X126352946Y-82958324D01*
X126473394Y-83003478D01*
X126488649Y-83007105D01*
X126539514Y-83012631D01*
X126546328Y-83013000D01*
X127068885Y-83013000D01*
X127084124Y-83008525D01*
X127085329Y-83007135D01*
X127087000Y-82999452D01*
X127087000Y-82994884D01*
X127595000Y-82994884D01*
X127599475Y-83010123D01*
X127600865Y-83011328D01*
X127608548Y-83012999D01*
X128135669Y-83012999D01*
X128142490Y-83012629D01*
X128193352Y-83007105D01*
X128208604Y-83003479D01*
X128329054Y-82958324D01*
X128344649Y-82949786D01*
X128446724Y-82873285D01*
X128459285Y-82860724D01*
X128535786Y-82758649D01*
X128544324Y-82743054D01*
X128589478Y-82622606D01*
X128593105Y-82607351D01*
X128598631Y-82556486D01*
X128599000Y-82549672D01*
X128599000Y-82027115D01*
X128594525Y-82011876D01*
X128593135Y-82010671D01*
X128585452Y-82009000D01*
X127613115Y-82009000D01*
X127597876Y-82013475D01*
X127596671Y-82014865D01*
X127595000Y-82022548D01*
X127595000Y-82994884D01*
X127087000Y-82994884D01*
X127087000Y-81627000D01*
X127107002Y-81558879D01*
X127160658Y-81512386D01*
X127213000Y-81501000D01*
X128580884Y-81501000D01*
X128596123Y-81496525D01*
X128597328Y-81495135D01*
X128598999Y-81487452D01*
X128598999Y-80960331D01*
X128598629Y-80953510D01*
X128593105Y-80902648D01*
X128589479Y-80887396D01*
X128544324Y-80766946D01*
X128535786Y-80751351D01*
X128459285Y-80649276D01*
X128446724Y-80636715D01*
X128344649Y-80560214D01*
X128329054Y-80551676D01*
X128213835Y-80508482D01*
X128157071Y-80465840D01*
X128132371Y-80399279D01*
X128147579Y-80329930D01*
X128197865Y-80279812D01*
X128258065Y-80264500D01*
X140199183Y-80264500D01*
X140267304Y-80284502D01*
X140288278Y-80301405D01*
X141946656Y-81959784D01*
X141980682Y-82022096D01*
X141975617Y-82092912D01*
X141933070Y-82149747D01*
X141866550Y-82174558D01*
X141804311Y-82163074D01*
X141627253Y-82080510D01*
X141616961Y-82076764D01*
X141444697Y-82030606D01*
X141430601Y-82030942D01*
X141427200Y-82038884D01*
X141427200Y-83039885D01*
X141431675Y-83055124D01*
X141433065Y-83056329D01*
X141440748Y-83058000D01*
X142441167Y-83058000D01*
X142454698Y-83054027D01*
X142455927Y-83045478D01*
X142408436Y-82868239D01*
X142404690Y-82857947D01*
X142322126Y-82680889D01*
X142311465Y-82610698D01*
X142340445Y-82545885D01*
X142399865Y-82507028D01*
X142470859Y-82506465D01*
X142525416Y-82538544D01*
X142710595Y-82723723D01*
X142744621Y-82786035D01*
X142747500Y-82812818D01*
X142747500Y-105147183D01*
X142727498Y-105215304D01*
X142710595Y-105236278D01*
X140288278Y-107658595D01*
X140225966Y-107692621D01*
X140199183Y-107695500D01*
X128217587Y-107695500D01*
X128149466Y-107675498D01*
X128102973Y-107621842D01*
X128092869Y-107551568D01*
X128122363Y-107486988D01*
X128181380Y-107448814D01*
X128203452Y-107442192D01*
X128213042Y-107438433D01*
X128404295Y-107344739D01*
X128413145Y-107339464D01*
X128586528Y-107215792D01*
X128594400Y-107209139D01*
X128745252Y-107058812D01*
X128751930Y-107050965D01*
X128876203Y-106878020D01*
X128881513Y-106869183D01*
X128975870Y-106678267D01*
X128979669Y-106668672D01*
X129041577Y-106464910D01*
X129043755Y-106454837D01*
X129045186Y-106443962D01*
X129042975Y-106429778D01*
X129029817Y-106426000D01*
X127583200Y-106426000D01*
X127515079Y-106405998D01*
X127468586Y-106352342D01*
X127457200Y-106300000D01*
X127457200Y-105899885D01*
X127965200Y-105899885D01*
X127969675Y-105915124D01*
X127971065Y-105916329D01*
X127978748Y-105918000D01*
X129029544Y-105918000D01*
X129043075Y-105914027D01*
X129044380Y-105904947D01*
X129002414Y-105737875D01*
X128999094Y-105728124D01*
X128914172Y-105532814D01*
X128909305Y-105523739D01*
X128793626Y-105344926D01*
X128787336Y-105336757D01*
X128644006Y-105179240D01*
X128636473Y-105172215D01*
X128469339Y-105040222D01*
X128460752Y-105034517D01*
X128274317Y-104931599D01*
X128264905Y-104927369D01*
X128064159Y-104856280D01*
X128054188Y-104853646D01*
X127983037Y-104840972D01*
X127969740Y-104842432D01*
X127965200Y-104856989D01*
X127965200Y-105899885D01*
X127457200Y-105899885D01*
X127457200Y-104855102D01*
X127453282Y-104841758D01*
X127439006Y-104839771D01*
X127400524Y-104845660D01*
X127390488Y-104848051D01*
X127188068Y-104914212D01*
X127178559Y-104918209D01*
X126989663Y-105016542D01*
X126980938Y-105022036D01*
X126810633Y-105149905D01*
X126802926Y-105156748D01*
X126725678Y-105237584D01*
X126664154Y-105273014D01*
X126593242Y-105269557D01*
X126535455Y-105228311D01*
X126516602Y-105194763D01*
X126474967Y-105083703D01*
X126471815Y-105075295D01*
X126384461Y-104958739D01*
X126267905Y-104871385D01*
X126131516Y-104820255D01*
X126069334Y-104813500D01*
X124273066Y-104813500D01*
X124210884Y-104820255D01*
X124074495Y-104871385D01*
X123957939Y-104958739D01*
X123870585Y-105075295D01*
X123819455Y-105211684D01*
X123812700Y-105273866D01*
X123812700Y-107070134D01*
X123819455Y-107132316D01*
X123870585Y-107268705D01*
X123957939Y-107385261D01*
X124046709Y-107451790D01*
X124069237Y-107468674D01*
X124111752Y-107525533D01*
X124116778Y-107596352D01*
X124082718Y-107658645D01*
X124020387Y-107692635D01*
X123993672Y-107695500D01*
X116340817Y-107695500D01*
X116272696Y-107675498D01*
X116251722Y-107658595D01*
X113829405Y-105236278D01*
X113795379Y-105173966D01*
X113792500Y-105147183D01*
X113792500Y-97804134D01*
X139611500Y-97804134D01*
X139618255Y-97866316D01*
X139669385Y-98002705D01*
X139756739Y-98119261D01*
X139873295Y-98206615D01*
X140009684Y-98257745D01*
X140071866Y-98264500D01*
X141868134Y-98264500D01*
X141930316Y-98257745D01*
X142066705Y-98206615D01*
X142183261Y-98119261D01*
X142270615Y-98002705D01*
X142321745Y-97866316D01*
X142328500Y-97804134D01*
X142328500Y-96007866D01*
X142321745Y-95945684D01*
X142270615Y-95809295D01*
X142183261Y-95692739D01*
X142066705Y-95605385D01*
X141947687Y-95560767D01*
X141890923Y-95518125D01*
X141866223Y-95451564D01*
X141881430Y-95382215D01*
X141902977Y-95353535D01*
X142004052Y-95252812D01*
X142010730Y-95244965D01*
X142135003Y-95072020D01*
X142140313Y-95063183D01*
X142234670Y-94872267D01*
X142238469Y-94862672D01*
X142300377Y-94658910D01*
X142302555Y-94648837D01*
X142303986Y-94637962D01*
X142301775Y-94623778D01*
X142288617Y-94620000D01*
X139653225Y-94620000D01*
X139639694Y-94623973D01*
X139638257Y-94633966D01*
X139668565Y-94768446D01*
X139671645Y-94778275D01*
X139751770Y-94975603D01*
X139756413Y-94984794D01*
X139867694Y-95166388D01*
X139873777Y-95174699D01*
X140013213Y-95335667D01*
X140020577Y-95342879D01*
X140025522Y-95346985D01*
X140065156Y-95405889D01*
X140066653Y-95476870D01*
X140029537Y-95537392D01*
X139989264Y-95561910D01*
X139881705Y-95602232D01*
X139881704Y-95602233D01*
X139873295Y-95605385D01*
X139756739Y-95692739D01*
X139669385Y-95809295D01*
X139618255Y-95945684D01*
X139611500Y-96007866D01*
X139611500Y-97804134D01*
X113792500Y-97804134D01*
X113792500Y-94375134D01*
X114059100Y-94375134D01*
X114065855Y-94437316D01*
X114116985Y-94573705D01*
X114204339Y-94690261D01*
X114320895Y-94777615D01*
X114457284Y-94828745D01*
X114519466Y-94835500D01*
X116315734Y-94835500D01*
X116377916Y-94828745D01*
X116514305Y-94777615D01*
X116630861Y-94690261D01*
X116718215Y-94573705D01*
X116769345Y-94437316D01*
X116776100Y-94375134D01*
X116776100Y-94100183D01*
X139634389Y-94100183D01*
X139635912Y-94108607D01*
X139648292Y-94112000D01*
X140697885Y-94112000D01*
X140713124Y-94107525D01*
X140714329Y-94106135D01*
X140716000Y-94098452D01*
X140716000Y-94093885D01*
X141224000Y-94093885D01*
X141228475Y-94109124D01*
X141229865Y-94110329D01*
X141237548Y-94112000D01*
X142288344Y-94112000D01*
X142301875Y-94108027D01*
X142303180Y-94098947D01*
X142261214Y-93931875D01*
X142257894Y-93922124D01*
X142172972Y-93726814D01*
X142168105Y-93717739D01*
X142052426Y-93538926D01*
X142046136Y-93530757D01*
X141902806Y-93373240D01*
X141895273Y-93366215D01*
X141728139Y-93234222D01*
X141719552Y-93228517D01*
X141533117Y-93125599D01*
X141523705Y-93121369D01*
X141322959Y-93050280D01*
X141312988Y-93047646D01*
X141241837Y-93034972D01*
X141228540Y-93036432D01*
X141224000Y-93050989D01*
X141224000Y-94093885D01*
X140716000Y-94093885D01*
X140716000Y-93049102D01*
X140712082Y-93035758D01*
X140697806Y-93033771D01*
X140659324Y-93039660D01*
X140649288Y-93042051D01*
X140446868Y-93108212D01*
X140437359Y-93112209D01*
X140248463Y-93210542D01*
X140239738Y-93216036D01*
X140069433Y-93343905D01*
X140061726Y-93350748D01*
X139914590Y-93504717D01*
X139908104Y-93512727D01*
X139788098Y-93688649D01*
X139783000Y-93697623D01*
X139693338Y-93890783D01*
X139689775Y-93900470D01*
X139634389Y-94100183D01*
X116776100Y-94100183D01*
X116776100Y-92578866D01*
X116769345Y-92516684D01*
X116718215Y-92380295D01*
X116630861Y-92263739D01*
X116514305Y-92176385D01*
X116395287Y-92131767D01*
X116338523Y-92089125D01*
X116313823Y-92022564D01*
X116329030Y-91953215D01*
X116350577Y-91924535D01*
X116451652Y-91823812D01*
X116458330Y-91815965D01*
X116582603Y-91643020D01*
X116587913Y-91634183D01*
X116682270Y-91443267D01*
X116686069Y-91433672D01*
X116747977Y-91229910D01*
X116750155Y-91219837D01*
X116751586Y-91208962D01*
X116749375Y-91194778D01*
X116736217Y-91191000D01*
X114100825Y-91191000D01*
X114087294Y-91194973D01*
X114085857Y-91204966D01*
X114116165Y-91339446D01*
X114119245Y-91349275D01*
X114199370Y-91546603D01*
X114204013Y-91555794D01*
X114315294Y-91737388D01*
X114321377Y-91745699D01*
X114460813Y-91906667D01*
X114468177Y-91913879D01*
X114473122Y-91917985D01*
X114512756Y-91976889D01*
X114514253Y-92047870D01*
X114477137Y-92108392D01*
X114436864Y-92132910D01*
X114329305Y-92173232D01*
X114329304Y-92173233D01*
X114320895Y-92176385D01*
X114204339Y-92263739D01*
X114116985Y-92380295D01*
X114065855Y-92516684D01*
X114059100Y-92578866D01*
X114059100Y-94375134D01*
X113792500Y-94375134D01*
X113792500Y-90671183D01*
X114081989Y-90671183D01*
X114083512Y-90679607D01*
X114095892Y-90683000D01*
X115145485Y-90683000D01*
X115160724Y-90678525D01*
X115161929Y-90677135D01*
X115163600Y-90669452D01*
X115163600Y-90664885D01*
X115671600Y-90664885D01*
X115676075Y-90680124D01*
X115677465Y-90681329D01*
X115685148Y-90683000D01*
X116735944Y-90683000D01*
X116749475Y-90679027D01*
X116750780Y-90669947D01*
X116708814Y-90502875D01*
X116705494Y-90493124D01*
X116620572Y-90297814D01*
X116615705Y-90288739D01*
X116500026Y-90109926D01*
X116493736Y-90101757D01*
X116350406Y-89944240D01*
X116342873Y-89937215D01*
X116175739Y-89805222D01*
X116167152Y-89799517D01*
X115980717Y-89696599D01*
X115971305Y-89692369D01*
X115770559Y-89621280D01*
X115760588Y-89618646D01*
X115689437Y-89605972D01*
X115676140Y-89607432D01*
X115671600Y-89621989D01*
X115671600Y-90664885D01*
X115163600Y-90664885D01*
X115163600Y-89620102D01*
X115159682Y-89606758D01*
X115145406Y-89604771D01*
X115106924Y-89610660D01*
X115096888Y-89613051D01*
X114894468Y-89679212D01*
X114884959Y-89683209D01*
X114696063Y-89781542D01*
X114687338Y-89787036D01*
X114517033Y-89914905D01*
X114509326Y-89921748D01*
X114362190Y-90075717D01*
X114355704Y-90083727D01*
X114235698Y-90259649D01*
X114230600Y-90268623D01*
X114140938Y-90461783D01*
X114137375Y-90471470D01*
X114081989Y-90671183D01*
X113792500Y-90671183D01*
X113792500Y-88727320D01*
X117797822Y-88727320D01*
X117813640Y-89045063D01*
X117814281Y-89048794D01*
X117814282Y-89048802D01*
X117847170Y-89240197D01*
X117867516Y-89358605D01*
X117868604Y-89362244D01*
X117868605Y-89362247D01*
X117948142Y-89628197D01*
X117958671Y-89663404D01*
X117960184Y-89666875D01*
X117960186Y-89666881D01*
X118007831Y-89776195D01*
X118085782Y-89955044D01*
X118247009Y-90229300D01*
X118249310Y-90232315D01*
X118437718Y-90479189D01*
X118437723Y-90479194D01*
X118440018Y-90482202D01*
X118450658Y-90493124D01*
X118632322Y-90679607D01*
X118662011Y-90710084D01*
X118788993Y-90812363D01*
X118906820Y-90907268D01*
X118906825Y-90907272D01*
X118909773Y-90909646D01*
X119179715Y-91077997D01*
X119467928Y-91212700D01*
X119518087Y-91229143D01*
X119766632Y-91310620D01*
X119766639Y-91310622D01*
X119770236Y-91311801D01*
X120082260Y-91373867D01*
X120240870Y-91385932D01*
X120395703Y-91397710D01*
X120395708Y-91397710D01*
X120399480Y-91397997D01*
X120717302Y-91383843D01*
X120721040Y-91383221D01*
X120721048Y-91383220D01*
X121027380Y-91332232D01*
X121027383Y-91332231D01*
X121031122Y-91331609D01*
X121336394Y-91242052D01*
X121339861Y-91240562D01*
X121339865Y-91240561D01*
X121625211Y-91117966D01*
X121625213Y-91117965D01*
X121628695Y-91116469D01*
X121903793Y-90956680D01*
X121943738Y-90926525D01*
X122154674Y-90767284D01*
X122157701Y-90764999D01*
X122386742Y-90544202D01*
X122587599Y-90297488D01*
X122589609Y-90294302D01*
X122589615Y-90294294D01*
X122755340Y-90031636D01*
X122755341Y-90031633D01*
X122757362Y-90028431D01*
X122893571Y-89740927D01*
X122897458Y-89729278D01*
X122993057Y-89442729D01*
X122994254Y-89439142D01*
X123057952Y-89127447D01*
X123083743Y-88810358D01*
X123084323Y-88755000D01*
X123082655Y-88727320D01*
X126597822Y-88727320D01*
X126613640Y-89045063D01*
X126614281Y-89048794D01*
X126614282Y-89048802D01*
X126647170Y-89240197D01*
X126667516Y-89358605D01*
X126668604Y-89362244D01*
X126668605Y-89362247D01*
X126748142Y-89628197D01*
X126758671Y-89663404D01*
X126760184Y-89666875D01*
X126760186Y-89666881D01*
X126807831Y-89776195D01*
X126885782Y-89955044D01*
X127047009Y-90229300D01*
X127049310Y-90232315D01*
X127237718Y-90479189D01*
X127237723Y-90479194D01*
X127240018Y-90482202D01*
X127250658Y-90493124D01*
X127432322Y-90679607D01*
X127462011Y-90710084D01*
X127588993Y-90812363D01*
X127706820Y-90907268D01*
X127706825Y-90907272D01*
X127709773Y-90909646D01*
X127979715Y-91077997D01*
X128267928Y-91212700D01*
X128318087Y-91229143D01*
X128566632Y-91310620D01*
X128566639Y-91310622D01*
X128570236Y-91311801D01*
X128882260Y-91373867D01*
X129040870Y-91385932D01*
X129195703Y-91397710D01*
X129195708Y-91397710D01*
X129199480Y-91397997D01*
X129517302Y-91383843D01*
X129521040Y-91383221D01*
X129521048Y-91383220D01*
X129827380Y-91332232D01*
X129827383Y-91332231D01*
X129831122Y-91331609D01*
X130136394Y-91242052D01*
X130139861Y-91240562D01*
X130139865Y-91240561D01*
X130425211Y-91117966D01*
X130425213Y-91117965D01*
X130428695Y-91116469D01*
X130703793Y-90956680D01*
X130736486Y-90932000D01*
X132239702Y-90932000D01*
X132259657Y-91160087D01*
X132261081Y-91165400D01*
X132261081Y-91165402D01*
X132316940Y-91373867D01*
X132318916Y-91381243D01*
X132321239Y-91386224D01*
X132321239Y-91386225D01*
X132413351Y-91583762D01*
X132413354Y-91583767D01*
X132415677Y-91588749D01*
X132547002Y-91776300D01*
X132708900Y-91938198D01*
X132713408Y-91941355D01*
X132713411Y-91941357D01*
X132730346Y-91953215D01*
X132896451Y-92069523D01*
X132901433Y-92071846D01*
X132901438Y-92071849D01*
X133098975Y-92163961D01*
X133103957Y-92166284D01*
X133109265Y-92167706D01*
X133109267Y-92167707D01*
X133319798Y-92224119D01*
X133319800Y-92224119D01*
X133325113Y-92225543D01*
X133553200Y-92245498D01*
X133781287Y-92225543D01*
X133786600Y-92224119D01*
X133786602Y-92224119D01*
X133997133Y-92167707D01*
X133997135Y-92167706D01*
X134002443Y-92166284D01*
X134007425Y-92163961D01*
X134204962Y-92071849D01*
X134204967Y-92071846D01*
X134209949Y-92069523D01*
X134376054Y-91953215D01*
X134392989Y-91941357D01*
X134392992Y-91941355D01*
X134397500Y-91938198D01*
X134559398Y-91776300D01*
X134690723Y-91588749D01*
X134693046Y-91583767D01*
X134693049Y-91583762D01*
X134785161Y-91386225D01*
X134785161Y-91386224D01*
X134787484Y-91381243D01*
X134789461Y-91373867D01*
X134845319Y-91165402D01*
X134845319Y-91165400D01*
X134846743Y-91160087D01*
X134866698Y-90932000D01*
X134846743Y-90703913D01*
X134837509Y-90669452D01*
X134788907Y-90488067D01*
X134788906Y-90488065D01*
X134787484Y-90482757D01*
X134702460Y-90300421D01*
X134693049Y-90280238D01*
X134693046Y-90280233D01*
X134690723Y-90275251D01*
X134559398Y-90087700D01*
X134397500Y-89925802D01*
X134392992Y-89922645D01*
X134392989Y-89922643D01*
X134225294Y-89805222D01*
X134209949Y-89794477D01*
X134204967Y-89792154D01*
X134204962Y-89792151D01*
X134170743Y-89776195D01*
X134117458Y-89729278D01*
X134097997Y-89661001D01*
X134118539Y-89593041D01*
X134170743Y-89547805D01*
X134204962Y-89531849D01*
X134204967Y-89531846D01*
X134209949Y-89529523D01*
X134378489Y-89411510D01*
X134392989Y-89401357D01*
X134392992Y-89401355D01*
X134397500Y-89398198D01*
X134559398Y-89236300D01*
X134690723Y-89048749D01*
X134693046Y-89043767D01*
X134693049Y-89043762D01*
X134785161Y-88846225D01*
X134785161Y-88846224D01*
X134787484Y-88841243D01*
X134811186Y-88752789D01*
X134845319Y-88625402D01*
X134845319Y-88625400D01*
X134846743Y-88620087D01*
X134866698Y-88392000D01*
X139859702Y-88392000D01*
X139879657Y-88620087D01*
X139881081Y-88625400D01*
X139881081Y-88625402D01*
X139915215Y-88752789D01*
X139938916Y-88841243D01*
X139941239Y-88846224D01*
X139941239Y-88846225D01*
X140033351Y-89043762D01*
X140033354Y-89043767D01*
X140035677Y-89048749D01*
X140167002Y-89236300D01*
X140328900Y-89398198D01*
X140333411Y-89401357D01*
X140337624Y-89404892D01*
X140336673Y-89406026D01*
X140376671Y-89456071D01*
X140383976Y-89526690D01*
X140351942Y-89590049D01*
X140290738Y-89626030D01*
X140273683Y-89629082D01*
X140262884Y-89630255D01*
X140126495Y-89681385D01*
X140009939Y-89768739D01*
X139922585Y-89885295D01*
X139871455Y-90021684D01*
X139864700Y-90083866D01*
X139864700Y-91780134D01*
X139871455Y-91842316D01*
X139922585Y-91978705D01*
X140009939Y-92095261D01*
X140126495Y-92182615D01*
X140262884Y-92233745D01*
X140325066Y-92240500D01*
X142021334Y-92240500D01*
X142083516Y-92233745D01*
X142219905Y-92182615D01*
X142336461Y-92095261D01*
X142423815Y-91978705D01*
X142474945Y-91842316D01*
X142481700Y-91780134D01*
X142481700Y-90083866D01*
X142474945Y-90021684D01*
X142423815Y-89885295D01*
X142336461Y-89768739D01*
X142219905Y-89681385D01*
X142083516Y-89630255D01*
X142072726Y-89629083D01*
X142070594Y-89628197D01*
X142067978Y-89627575D01*
X142068079Y-89627152D01*
X142007165Y-89601845D01*
X141966737Y-89543483D01*
X141964278Y-89472529D01*
X142000571Y-89411510D01*
X142009231Y-89404511D01*
X142012993Y-89401354D01*
X142017500Y-89398198D01*
X142179398Y-89236300D01*
X142310723Y-89048749D01*
X142313046Y-89043767D01*
X142313049Y-89043762D01*
X142405161Y-88846225D01*
X142405161Y-88846224D01*
X142407484Y-88841243D01*
X142431186Y-88752789D01*
X142465319Y-88625402D01*
X142465319Y-88625400D01*
X142466743Y-88620087D01*
X142486698Y-88392000D01*
X142466743Y-88163913D01*
X142407484Y-87942757D01*
X142336890Y-87791366D01*
X142313049Y-87740238D01*
X142313046Y-87740233D01*
X142310723Y-87735251D01*
X142179398Y-87547700D01*
X142017500Y-87385802D01*
X142012992Y-87382645D01*
X142012989Y-87382643D01*
X141934811Y-87327902D01*
X141829949Y-87254477D01*
X141824967Y-87252154D01*
X141824962Y-87252151D01*
X141790743Y-87236195D01*
X141737458Y-87189278D01*
X141717997Y-87121001D01*
X141738539Y-87053041D01*
X141790743Y-87007805D01*
X141824962Y-86991849D01*
X141824967Y-86991846D01*
X141829949Y-86989523D01*
X141934811Y-86916098D01*
X142012989Y-86861357D01*
X142012992Y-86861355D01*
X142017500Y-86858198D01*
X142179398Y-86696300D01*
X142310723Y-86508749D01*
X142313046Y-86503767D01*
X142313049Y-86503762D01*
X142405161Y-86306225D01*
X142405161Y-86306224D01*
X142407484Y-86301243D01*
X142410815Y-86288814D01*
X142465319Y-86085402D01*
X142465319Y-86085400D01*
X142466743Y-86080087D01*
X142486698Y-85852000D01*
X142466743Y-85623913D01*
X142407484Y-85402757D01*
X142405161Y-85397775D01*
X142313049Y-85200238D01*
X142313046Y-85200233D01*
X142310723Y-85195251D01*
X142179398Y-85007700D01*
X142017500Y-84845802D01*
X142012992Y-84842645D01*
X142012989Y-84842643D01*
X141934811Y-84787902D01*
X141829949Y-84714477D01*
X141824967Y-84712154D01*
X141824962Y-84712151D01*
X141790151Y-84695919D01*
X141736866Y-84649002D01*
X141717405Y-84580725D01*
X141737947Y-84512765D01*
X141790151Y-84467529D01*
X141824711Y-84451414D01*
X141834207Y-84445931D01*
X142012667Y-84320972D01*
X142021075Y-84313916D01*
X142175116Y-84159875D01*
X142182172Y-84151467D01*
X142307131Y-83973007D01*
X142312614Y-83963511D01*
X142404690Y-83766053D01*
X142408436Y-83755761D01*
X142454594Y-83583497D01*
X142454258Y-83569401D01*
X142446316Y-83566000D01*
X139905233Y-83566000D01*
X139891702Y-83569973D01*
X139890473Y-83578522D01*
X139937964Y-83755761D01*
X139941710Y-83766053D01*
X140033786Y-83963511D01*
X140039269Y-83973007D01*
X140164228Y-84151467D01*
X140171284Y-84159875D01*
X140325325Y-84313916D01*
X140333733Y-84320972D01*
X140512193Y-84445931D01*
X140521689Y-84451414D01*
X140556249Y-84467529D01*
X140609534Y-84514446D01*
X140628995Y-84582723D01*
X140608453Y-84650683D01*
X140556249Y-84695919D01*
X140521438Y-84712151D01*
X140521433Y-84712154D01*
X140516451Y-84714477D01*
X140411589Y-84787902D01*
X140333411Y-84842643D01*
X140333408Y-84842645D01*
X140328900Y-84845802D01*
X140167002Y-85007700D01*
X140035677Y-85195251D01*
X140033354Y-85200233D01*
X140033351Y-85200238D01*
X139941239Y-85397775D01*
X139938916Y-85402757D01*
X139879657Y-85623913D01*
X139859702Y-85852000D01*
X139879657Y-86080087D01*
X139881081Y-86085400D01*
X139881081Y-86085402D01*
X139935586Y-86288814D01*
X139938916Y-86301243D01*
X139941239Y-86306224D01*
X139941239Y-86306225D01*
X140033351Y-86503762D01*
X140033354Y-86503767D01*
X140035677Y-86508749D01*
X140167002Y-86696300D01*
X140328900Y-86858198D01*
X140333408Y-86861355D01*
X140333411Y-86861357D01*
X140411589Y-86916098D01*
X140516451Y-86989523D01*
X140521433Y-86991846D01*
X140521438Y-86991849D01*
X140555657Y-87007805D01*
X140608942Y-87054722D01*
X140628403Y-87122999D01*
X140607861Y-87190959D01*
X140555657Y-87236195D01*
X140521438Y-87252151D01*
X140521433Y-87252154D01*
X140516451Y-87254477D01*
X140411589Y-87327902D01*
X140333411Y-87382643D01*
X140333408Y-87382645D01*
X140328900Y-87385802D01*
X140167002Y-87547700D01*
X140035677Y-87735251D01*
X140033354Y-87740233D01*
X140033351Y-87740238D01*
X140009510Y-87791366D01*
X139938916Y-87942757D01*
X139879657Y-88163913D01*
X139859702Y-88392000D01*
X134866698Y-88392000D01*
X134846743Y-88163913D01*
X134787484Y-87942757D01*
X134716890Y-87791366D01*
X134693049Y-87740238D01*
X134693046Y-87740233D01*
X134690723Y-87735251D01*
X134559398Y-87547700D01*
X134397500Y-87385802D01*
X134392992Y-87382645D01*
X134392989Y-87382643D01*
X134314811Y-87327902D01*
X134209949Y-87254477D01*
X134204967Y-87252154D01*
X134204962Y-87252151D01*
X134170743Y-87236195D01*
X134117458Y-87189278D01*
X134097997Y-87121001D01*
X134118539Y-87053041D01*
X134170743Y-87007805D01*
X134204962Y-86991849D01*
X134204967Y-86991846D01*
X134209949Y-86989523D01*
X134314811Y-86916098D01*
X134392989Y-86861357D01*
X134392992Y-86861355D01*
X134397500Y-86858198D01*
X134559398Y-86696300D01*
X134690723Y-86508749D01*
X134693046Y-86503767D01*
X134693049Y-86503762D01*
X134785161Y-86306225D01*
X134785161Y-86306224D01*
X134787484Y-86301243D01*
X134790815Y-86288814D01*
X134845319Y-86085402D01*
X134845319Y-86085400D01*
X134846743Y-86080087D01*
X134866698Y-85852000D01*
X134846743Y-85623913D01*
X134787484Y-85402757D01*
X134785161Y-85397775D01*
X134693049Y-85200238D01*
X134693046Y-85200233D01*
X134690723Y-85195251D01*
X134559398Y-85007700D01*
X134397500Y-84845802D01*
X134392992Y-84842645D01*
X134392989Y-84842643D01*
X134314811Y-84787902D01*
X134209949Y-84714477D01*
X134204967Y-84712154D01*
X134204962Y-84712151D01*
X134170743Y-84696195D01*
X134117458Y-84649278D01*
X134097997Y-84581001D01*
X134118539Y-84513041D01*
X134170743Y-84467805D01*
X134204962Y-84451849D01*
X134204967Y-84451846D01*
X134209949Y-84449523D01*
X134314811Y-84376098D01*
X134392989Y-84321357D01*
X134392992Y-84321355D01*
X134397500Y-84318198D01*
X134559398Y-84156300D01*
X134690723Y-83968749D01*
X134693046Y-83963767D01*
X134693049Y-83963762D01*
X134785161Y-83766225D01*
X134785161Y-83766224D01*
X134787484Y-83761243D01*
X134846743Y-83540087D01*
X134866698Y-83312000D01*
X134846743Y-83083913D01*
X134836444Y-83045478D01*
X134835111Y-83040503D01*
X139891806Y-83040503D01*
X139892142Y-83054599D01*
X139900084Y-83058000D01*
X140901085Y-83058000D01*
X140916324Y-83053525D01*
X140917529Y-83052135D01*
X140919200Y-83044452D01*
X140919200Y-82044033D01*
X140915227Y-82030502D01*
X140906678Y-82029273D01*
X140729439Y-82076764D01*
X140719147Y-82080510D01*
X140521689Y-82172586D01*
X140512193Y-82178069D01*
X140333733Y-82303028D01*
X140325325Y-82310084D01*
X140171284Y-82464125D01*
X140164228Y-82472533D01*
X140039269Y-82650993D01*
X140033786Y-82660489D01*
X139941710Y-82857947D01*
X139937964Y-82868239D01*
X139891806Y-83040503D01*
X134835111Y-83040503D01*
X134788907Y-82868067D01*
X134788906Y-82868065D01*
X134787484Y-82862757D01*
X134739861Y-82760628D01*
X134693049Y-82660238D01*
X134693046Y-82660233D01*
X134690723Y-82655251D01*
X134603432Y-82530587D01*
X134562557Y-82472211D01*
X134562555Y-82472208D01*
X134559398Y-82467700D01*
X134397500Y-82305802D01*
X134392992Y-82302645D01*
X134392989Y-82302643D01*
X134309005Y-82243837D01*
X134209949Y-82174477D01*
X134204967Y-82172154D01*
X134204962Y-82172151D01*
X134007425Y-82080039D01*
X134007424Y-82080039D01*
X134002443Y-82077716D01*
X133997135Y-82076294D01*
X133997133Y-82076293D01*
X133786602Y-82019881D01*
X133786600Y-82019881D01*
X133781287Y-82018457D01*
X133553200Y-81998502D01*
X133325113Y-82018457D01*
X133319800Y-82019881D01*
X133319798Y-82019881D01*
X133109267Y-82076293D01*
X133109265Y-82076294D01*
X133103957Y-82077716D01*
X133098976Y-82080039D01*
X133098975Y-82080039D01*
X132901438Y-82172151D01*
X132901433Y-82172154D01*
X132896451Y-82174477D01*
X132797395Y-82243837D01*
X132713411Y-82302643D01*
X132713408Y-82302645D01*
X132708900Y-82305802D01*
X132547002Y-82467700D01*
X132543845Y-82472208D01*
X132543843Y-82472211D01*
X132502968Y-82530587D01*
X132415677Y-82655251D01*
X132413354Y-82660233D01*
X132413351Y-82660238D01*
X132366539Y-82760628D01*
X132318916Y-82862757D01*
X132317494Y-82868065D01*
X132317493Y-82868067D01*
X132269956Y-83045478D01*
X132259657Y-83083913D01*
X132239702Y-83312000D01*
X132259657Y-83540087D01*
X132318916Y-83761243D01*
X132321239Y-83766224D01*
X132321239Y-83766225D01*
X132413351Y-83963762D01*
X132413354Y-83963767D01*
X132415677Y-83968749D01*
X132547002Y-84156300D01*
X132708900Y-84318198D01*
X132713408Y-84321355D01*
X132713411Y-84321357D01*
X132791589Y-84376098D01*
X132896451Y-84449523D01*
X132901433Y-84451846D01*
X132901438Y-84451849D01*
X132935657Y-84467805D01*
X132988942Y-84514722D01*
X133008403Y-84582999D01*
X132987861Y-84650959D01*
X132935657Y-84696195D01*
X132901438Y-84712151D01*
X132901433Y-84712154D01*
X132896451Y-84714477D01*
X132791589Y-84787902D01*
X132713411Y-84842643D01*
X132713408Y-84842645D01*
X132708900Y-84845802D01*
X132547002Y-85007700D01*
X132415677Y-85195251D01*
X132413354Y-85200233D01*
X132413351Y-85200238D01*
X132321239Y-85397775D01*
X132318916Y-85402757D01*
X132259657Y-85623913D01*
X132239702Y-85852000D01*
X132259657Y-86080087D01*
X132261081Y-86085400D01*
X132261081Y-86085402D01*
X132315586Y-86288814D01*
X132318916Y-86301243D01*
X132321239Y-86306224D01*
X132321239Y-86306225D01*
X132413351Y-86503762D01*
X132413354Y-86503767D01*
X132415677Y-86508749D01*
X132547002Y-86696300D01*
X132708900Y-86858198D01*
X132713408Y-86861355D01*
X132713411Y-86861357D01*
X132791589Y-86916098D01*
X132896451Y-86989523D01*
X132901433Y-86991846D01*
X132901438Y-86991849D01*
X132935657Y-87007805D01*
X132988942Y-87054722D01*
X133008403Y-87122999D01*
X132987861Y-87190959D01*
X132935657Y-87236195D01*
X132901438Y-87252151D01*
X132901433Y-87252154D01*
X132896451Y-87254477D01*
X132791589Y-87327902D01*
X132713411Y-87382643D01*
X132713408Y-87382645D01*
X132708900Y-87385802D01*
X132547002Y-87547700D01*
X132415677Y-87735251D01*
X132413354Y-87740233D01*
X132413351Y-87740238D01*
X132389510Y-87791366D01*
X132318916Y-87942757D01*
X132259657Y-88163913D01*
X132239702Y-88392000D01*
X132259657Y-88620087D01*
X132261081Y-88625400D01*
X132261081Y-88625402D01*
X132295215Y-88752789D01*
X132318916Y-88841243D01*
X132321239Y-88846224D01*
X132321239Y-88846225D01*
X132413351Y-89043762D01*
X132413354Y-89043767D01*
X132415677Y-89048749D01*
X132547002Y-89236300D01*
X132708900Y-89398198D01*
X132713408Y-89401355D01*
X132713411Y-89401357D01*
X132727911Y-89411510D01*
X132896451Y-89529523D01*
X132901433Y-89531846D01*
X132901438Y-89531849D01*
X132935657Y-89547805D01*
X132988942Y-89594722D01*
X133008403Y-89662999D01*
X132987861Y-89730959D01*
X132935657Y-89776195D01*
X132901438Y-89792151D01*
X132901433Y-89792154D01*
X132896451Y-89794477D01*
X132881106Y-89805222D01*
X132713411Y-89922643D01*
X132713408Y-89922645D01*
X132708900Y-89925802D01*
X132547002Y-90087700D01*
X132415677Y-90275251D01*
X132413354Y-90280233D01*
X132413351Y-90280238D01*
X132403940Y-90300421D01*
X132318916Y-90482757D01*
X132317494Y-90488065D01*
X132317493Y-90488067D01*
X132268891Y-90669452D01*
X132259657Y-90703913D01*
X132239702Y-90932000D01*
X130736486Y-90932000D01*
X130743738Y-90926525D01*
X130954674Y-90767284D01*
X130957701Y-90764999D01*
X131186742Y-90544202D01*
X131387599Y-90297488D01*
X131389609Y-90294302D01*
X131389615Y-90294294D01*
X131555340Y-90031636D01*
X131555341Y-90031633D01*
X131557362Y-90028431D01*
X131693571Y-89740927D01*
X131697458Y-89729278D01*
X131793057Y-89442729D01*
X131794254Y-89439142D01*
X131857952Y-89127447D01*
X131883743Y-88810358D01*
X131884323Y-88755000D01*
X131882655Y-88727320D01*
X131865406Y-88441218D01*
X131865406Y-88441214D01*
X131865178Y-88437440D01*
X131860163Y-88409977D01*
X131845417Y-88329237D01*
X131808022Y-88124479D01*
X131713681Y-87820652D01*
X131703712Y-87798417D01*
X131585072Y-87533816D01*
X131583522Y-87530359D01*
X131570870Y-87509343D01*
X131421381Y-87261042D01*
X131421380Y-87261040D01*
X131419432Y-87257805D01*
X131417112Y-87254830D01*
X131417107Y-87254823D01*
X131226122Y-87009934D01*
X131226120Y-87009932D01*
X131223786Y-87006939D01*
X130999419Y-86781394D01*
X130749580Y-86584437D01*
X130477890Y-86418922D01*
X130362400Y-86366412D01*
X130191734Y-86288814D01*
X130191727Y-86288811D01*
X130188282Y-86287245D01*
X129884953Y-86191315D01*
X129671881Y-86151247D01*
X129576019Y-86133220D01*
X129576017Y-86133220D01*
X129572296Y-86132520D01*
X129254840Y-86111713D01*
X129251060Y-86111921D01*
X129251059Y-86111921D01*
X129156956Y-86117100D01*
X128937184Y-86129195D01*
X128933457Y-86129856D01*
X128933453Y-86129856D01*
X128822943Y-86149441D01*
X128623929Y-86184712D01*
X128620313Y-86185814D01*
X128620305Y-86185816D01*
X128323233Y-86276357D01*
X128319611Y-86277461D01*
X128028641Y-86406098D01*
X127755232Y-86568759D01*
X127503345Y-86763089D01*
X127276628Y-86986272D01*
X127078366Y-87235075D01*
X126911430Y-87505896D01*
X126778239Y-87794810D01*
X126777080Y-87798410D01*
X126777077Y-87798417D01*
X126732200Y-87937775D01*
X126680722Y-88097632D01*
X126680003Y-88101348D01*
X126680001Y-88101356D01*
X126621010Y-88406258D01*
X126621009Y-88406267D01*
X126620291Y-88409977D01*
X126620024Y-88413753D01*
X126620023Y-88413758D01*
X126618079Y-88441218D01*
X126597822Y-88727320D01*
X123082655Y-88727320D01*
X123065406Y-88441218D01*
X123065406Y-88441214D01*
X123065178Y-88437440D01*
X123060163Y-88409977D01*
X123045417Y-88329237D01*
X123008022Y-88124479D01*
X122913681Y-87820652D01*
X122903712Y-87798417D01*
X122785072Y-87533816D01*
X122783522Y-87530359D01*
X122770870Y-87509343D01*
X122621381Y-87261042D01*
X122621380Y-87261040D01*
X122619432Y-87257805D01*
X122617112Y-87254830D01*
X122617107Y-87254823D01*
X122426122Y-87009934D01*
X122426120Y-87009932D01*
X122423786Y-87006939D01*
X122199419Y-86781394D01*
X121949580Y-86584437D01*
X121677890Y-86418922D01*
X121562400Y-86366412D01*
X121391734Y-86288814D01*
X121391727Y-86288811D01*
X121388282Y-86287245D01*
X121084953Y-86191315D01*
X120871881Y-86151247D01*
X120776019Y-86133220D01*
X120776017Y-86133220D01*
X120772296Y-86132520D01*
X120454840Y-86111713D01*
X120451060Y-86111921D01*
X120451059Y-86111921D01*
X120356956Y-86117100D01*
X120137184Y-86129195D01*
X120133457Y-86129856D01*
X120133453Y-86129856D01*
X120022943Y-86149441D01*
X119823929Y-86184712D01*
X119820313Y-86185814D01*
X119820305Y-86185816D01*
X119523233Y-86276357D01*
X119519611Y-86277461D01*
X119228641Y-86406098D01*
X118955232Y-86568759D01*
X118703345Y-86763089D01*
X118476628Y-86986272D01*
X118278366Y-87235075D01*
X118111430Y-87505896D01*
X117978239Y-87794810D01*
X117977080Y-87798410D01*
X117977077Y-87798417D01*
X117932200Y-87937775D01*
X117880722Y-88097632D01*
X117880003Y-88101348D01*
X117880001Y-88101356D01*
X117821010Y-88406258D01*
X117821009Y-88406267D01*
X117820291Y-88409977D01*
X117820024Y-88413753D01*
X117820023Y-88413758D01*
X117818079Y-88441218D01*
X117797822Y-88727320D01*
X113792500Y-88727320D01*
X113792500Y-82812817D01*
X113812502Y-82744696D01*
X113829405Y-82723722D01*
X116251723Y-80301405D01*
X116314035Y-80267379D01*
X116340818Y-80264500D01*
X122084083Y-80264500D01*
X122152204Y-80284502D01*
G37*
G04 #@! TD.AperFunction*
M02*
