G04 #@! TF.GenerationSoftware,KiCad,Pcbnew,(6.0.7)*
G04 #@! TF.CreationDate,2024-01-15T20:32:35-05:00*
G04 #@! TF.ProjectId,pcb_chip,7063625f-6368-4697-902e-6b696361645f,rev?*
G04 #@! TF.SameCoordinates,Original*
G04 #@! TF.FileFunction,Soldermask,Top*
G04 #@! TF.FilePolarity,Negative*
%FSLAX46Y46*%
G04 Gerber Fmt 4.6, Leading zero omitted, Abs format (unit mm)*
G04 Created by KiCad (PCBNEW (6.0.7)) date 2024-01-15 20:32:35*
%MOMM*%
%LPD*%
G01*
G04 APERTURE LIST*
G04 Aperture macros list*
%AMRoundRect*
0 Rectangle with rounded corners*
0 $1 Rounding radius*
0 $2 $3 $4 $5 $6 $7 $8 $9 X,Y pos of 4 corners*
0 Add a 4 corners polygon primitive as box body*
4,1,4,$2,$3,$4,$5,$6,$7,$8,$9,$2,$3,0*
0 Add four circle primitives for the rounded corners*
1,1,$1+$1,$2,$3*
1,1,$1+$1,$4,$5*
1,1,$1+$1,$6,$7*
1,1,$1+$1,$8,$9*
0 Add four rect primitives between the rounded corners*
20,1,$1+$1,$2,$3,$4,$5,0*
20,1,$1+$1,$4,$5,$6,$7,0*
20,1,$1+$1,$6,$7,$8,$9,0*
20,1,$1+$1,$8,$9,$2,$3,0*%
G04 Aperture macros list end*
%ADD10RoundRect,0.250000X0.450000X-0.262500X0.450000X0.262500X-0.450000X0.262500X-0.450000X-0.262500X0*%
%ADD11R,1.600000X1.600000*%
%ADD12O,1.600000X1.600000*%
%ADD13RoundRect,0.250000X0.312500X0.625000X-0.312500X0.625000X-0.312500X-0.625000X0.312500X-0.625000X0*%
%ADD14RoundRect,0.150000X-0.150000X0.587500X-0.150000X-0.587500X0.150000X-0.587500X0.150000X0.587500X0*%
%ADD15RoundRect,0.250000X-0.625000X0.312500X-0.625000X-0.312500X0.625000X-0.312500X0.625000X0.312500X0*%
%ADD16RoundRect,0.250000X0.625000X-0.312500X0.625000X0.312500X-0.625000X0.312500X-0.625000X-0.312500X0*%
%ADD17RoundRect,0.250000X-1.050000X-0.550000X1.050000X-0.550000X1.050000X0.550000X-1.050000X0.550000X0*%
%ADD18R,1.500000X1.500000*%
%ADD19C,1.500000*%
%ADD20C,4.260000*%
%ADD21R,1.700000X1.700000*%
%ADD22O,1.700000X1.700000*%
%ADD23RoundRect,0.150000X0.587500X0.150000X-0.587500X0.150000X-0.587500X-0.150000X0.587500X-0.150000X0*%
%ADD24RoundRect,0.250000X-0.550000X1.050000X-0.550000X-1.050000X0.550000X-1.050000X0.550000X1.050000X0*%
%ADD25R,1.500000X2.000000*%
%ADD26R,3.800000X2.000000*%
G04 APERTURE END LIST*
D10*
X117449600Y-102664900D03*
X117449600Y-100839900D03*
D11*
X141173200Y-90932000D03*
D12*
X141173200Y-88392000D03*
X141173200Y-85852000D03*
X141173200Y-83312000D03*
X133553200Y-83312000D03*
X133553200Y-85852000D03*
X133553200Y-88392000D03*
X133553200Y-90932000D03*
D13*
X136133300Y-93726000D03*
X133208300Y-93726000D03*
D14*
X137957600Y-103100900D03*
X136057600Y-103100900D03*
X137007600Y-104975900D03*
D15*
X137922000Y-96429100D03*
X137922000Y-99354100D03*
D16*
X121412000Y-99125500D03*
X121412000Y-96200500D03*
D17*
X131550000Y-97917000D03*
X135150000Y-97917000D03*
D15*
X140309600Y-99832700D03*
X140309600Y-102757700D03*
D16*
X121412000Y-103824500D03*
X121412000Y-100899500D03*
D18*
X127341000Y-81755000D03*
D19*
X124841000Y-81755000D03*
X122341000Y-81755000D03*
D20*
X129241000Y-88755000D03*
X120441000Y-88755000D03*
D21*
X115417600Y-93477000D03*
D22*
X115417600Y-90937000D03*
D21*
X140970000Y-96906000D03*
D22*
X140970000Y-94366000D03*
D21*
X125171200Y-106172000D03*
D22*
X127711200Y-106172000D03*
D23*
X119149100Y-98028800D03*
X119149100Y-96128800D03*
X117274100Y-97078800D03*
D24*
X132384800Y-102086000D03*
X132384800Y-105686000D03*
D25*
X123938000Y-102972000D03*
X126238000Y-102972000D03*
D26*
X126238000Y-96672000D03*
D25*
X128538000Y-102972000D03*
M02*
